<svg width="22" height="22" viewBox="0 0 22 22" fill="none" xmlns="http://www.w3.org/2000/svg">
<path d="M10.5602 20.7778C10.4184 20.7778 3.05821 19.1473 3.17921 12.8272C3.29532 6.82001 11.6944 1.22223 11.6944 1.22223C11.6944 1.22223 11.5135 3.88667 12.0037 5.09301C12.495 6.30056 12.9325 6.95078 14.035 7.85523C14.1719 7.41645 14.4811 6.95078 15.1008 6.33234C15.8977 7.95056 17.159 9.99534 18.0977 11.2457C20.1571 15.2485 18.1527 18.8956 12.6954 20.7778C11.2532 20.7093 17.9424 15.9867 11.6932 12.65C12.7749 15.9867 6.8691 17.4631 10.5602 20.7778Z" fill="url(#paint0_linear)"/>
<defs>
<linearGradient id="paint0_linear" x1="11.0342" y1="1.22223" x2="11.0342" y2="20.7778" gradientUnits="userSpaceOnUse">
<stop stop-color="#D40D2D"/>
<stop offset="0.88875" stop-color="#FF2C2C"/>
</linearGradient>
</defs>
</svg>
