<svg width="34" height="34" viewBox="0 0 34 34" fill="none" xmlns="http://www.w3.org/2000/svg">
<circle cx="17" cy="17" r="17" fill="url(#paint0_linear)"/>
<path d="M18.7917 18.7176C19.3497 18.1595 19.6288 17.4862 19.6288 16.6975C19.6288 15.9088 19.3497 15.2354 18.7917 14.6774C18.2337 14.1193 17.5603 13.8403 16.7716 13.8403C15.9829 13.8403 15.3096 14.1193 14.7515 14.6774C14.1935 15.2354 13.9145 15.9088 13.9145 16.6975C13.9145 17.4862 14.1935 18.1595 14.7515 18.7176C15.3096 19.2756 15.9829 19.5546 16.7716 19.5546C17.5603 19.5546 18.2337 19.2756 18.7917 18.7176ZM19.8855 13.5836C20.7411 14.4393 21.1689 15.4772 21.1689 16.6975C21.1689 17.9177 20.7411 18.9557 19.8855 19.8113C19.0298 20.667 17.9919 21.0948 16.7716 21.0948C15.5514 21.0948 14.5134 20.667 13.6578 19.8113C12.8021 18.9557 12.3743 17.9177 12.3743 16.6975C12.3743 15.4772 12.8021 14.4393 13.6578 13.5836C14.5134 12.728 15.5514 12.3002 16.7716 12.3002C17.9919 12.3002 19.0298 12.728 19.8855 13.5836ZM22.073 11.3961C22.2739 11.597 22.3743 11.8388 22.3743 12.1216C22.3743 12.4043 22.2739 12.6461 22.073 12.847C21.8721 13.0479 21.6303 13.1484 21.3475 13.1484C21.0648 13.1484 20.823 13.0479 20.6221 12.847C20.4212 12.6461 20.3207 12.4043 20.3207 12.1216C20.3207 11.8388 20.4212 11.597 20.6221 11.3961C20.823 11.1952 21.0648 11.0948 21.3475 11.0948C21.6303 11.0948 21.8721 11.1952 22.073 11.3961ZM17.6198 9.66622C17.1064 9.66622 16.8237 9.66622 16.7716 9.66622C16.7195 9.66622 16.4331 9.66622 15.9122 9.66622C15.3989 9.65878 15.0082 9.65878 14.7404 9.66622C14.4725 9.66622 14.1117 9.67739 13.6578 9.69971C13.2114 9.71459 12.8282 9.75179 12.5082 9.81131C12.1957 9.8634 11.9316 9.93036 11.7158 10.0122C11.3438 10.161 11.0164 10.3768 10.7337 10.6595C10.4509 10.9423 10.2352 11.2696 10.0864 11.6417C10.0045 11.8574 9.93383 12.1253 9.8743 12.4452C9.82222 12.7577 9.78502 13.1409 9.7627 13.5948C9.74781 14.0412 9.73665 14.3984 9.72921 14.6662C9.72921 14.9341 9.72921 15.3284 9.72921 15.8493C9.73665 16.3627 9.74037 16.6454 9.74037 16.6975C9.74037 16.7496 9.73665 17.036 9.72921 17.5568C9.72921 18.0702 9.72921 18.4609 9.72921 18.7287C9.73665 18.9966 9.74781 19.3574 9.7627 19.8113C9.78502 20.2577 9.82222 20.6409 9.8743 20.9609C9.93383 21.2734 10.0045 21.5375 10.0864 21.7533C10.2352 22.1253 10.4509 22.4527 10.7337 22.7354C11.0164 23.0182 11.3438 23.2339 11.7158 23.3827C11.9316 23.4646 12.1957 23.5353 12.5082 23.5948C12.8282 23.6469 13.2114 23.6841 13.6578 23.7064C14.1117 23.7213 14.4725 23.7324 14.7404 23.7399C15.0082 23.7399 15.3989 23.7399 15.9122 23.7399C16.4331 23.7324 16.7195 23.7287 16.7716 23.7287C16.8237 23.7287 17.1064 23.7324 17.6198 23.7399C18.1407 23.7399 18.535 23.7399 18.8029 23.7399C19.0707 23.7324 19.4279 23.7213 19.8743 23.7064C20.3282 23.6841 20.7114 23.6469 21.0239 23.5948C21.3438 23.5353 21.6117 23.4646 21.8274 23.3827C22.1995 23.2339 22.5268 23.0182 22.8096 22.7354C23.0923 22.4527 23.3081 22.1253 23.4569 21.7533C23.5387 21.5375 23.6057 21.2734 23.6578 20.9609C23.7173 20.6409 23.7545 20.2577 23.7694 19.8113C23.7917 19.3574 23.8029 18.9966 23.8029 18.7287C23.8103 18.4609 23.8103 18.0702 23.8029 17.5568C23.8029 17.036 23.8029 16.7496 23.8029 16.6975C23.8029 16.6454 23.8029 16.3627 23.8029 15.8493C23.8103 15.3284 23.8103 14.9341 23.8029 14.6662C23.8029 14.3984 23.7917 14.0412 23.7694 13.5948C23.7545 13.1409 23.7173 12.7577 23.6578 12.4452C23.6057 12.1253 23.5387 11.8574 23.4569 11.6417C23.3081 11.2696 23.0923 10.9423 22.8096 10.6595C22.5268 10.3768 22.1995 10.161 21.8274 10.0122C21.6117 9.93036 21.3438 9.8634 21.0239 9.81131C20.7114 9.75179 20.3282 9.71459 19.8743 9.69971C19.4279 9.67739 19.0707 9.66622 18.8029 9.66622C18.535 9.65878 18.1407 9.65878 17.6198 9.66622ZM25.2872 13.1595C25.3245 13.8143 25.3431 14.9936 25.3431 16.6975C25.3431 18.4013 25.3245 19.5807 25.2872 20.2354C25.2128 21.783 24.7515 22.981 23.9033 23.8292C23.0551 24.6774 21.8572 25.1387 20.3096 25.2131C19.6548 25.2503 18.4755 25.2689 16.7716 25.2689C15.0678 25.2689 13.8884 25.2503 13.2337 25.2131C11.6861 25.1387 10.4881 24.6774 9.63993 23.8292C8.79171 22.981 8.3304 21.783 8.256 20.2354C8.2188 19.5807 8.2002 18.4013 8.2002 16.6975C8.2002 14.9936 8.2188 13.8143 8.256 13.1595C8.3304 11.6119 8.79171 10.414 9.63993 9.56578C10.4881 8.71756 11.6861 8.25625 13.2337 8.18185C13.8884 8.14465 15.0678 8.12605 16.7716 8.12605C18.4755 8.12605 19.6548 8.14465 20.3096 8.18185C21.8572 8.25625 23.0551 8.71756 23.9033 9.56578C24.7515 10.414 25.2128 11.6119 25.2872 13.1595Z" fill="white"/>
<defs>
<linearGradient id="paint0_linear" x1="26.52" y1="3.4" x2="6.12" y2="28.9" gradientUnits="userSpaceOnUse">
<stop stop-color="#532BD6"/>
<stop offset="0.317708" stop-color="#D61B58"/>
<stop offset="0.505208" stop-color="#F14136"/>
<stop offset="0.776042" stop-color="#E67767"/>
<stop offset="1" stop-color="#F8D876"/>
</linearGradient>
</defs>
</svg>
