<svg width="34" height="34" viewBox="0 0 34 34" fill="none" xmlns="http://www.w3.org/2000/svg">
<circle cx="17" cy="17" r="17" fill="#F9931D"/>
<path d="M20.7254 15.4955C19.7359 16.4851 18.5417 16.9799 17.1429 16.9799C15.744 16.9799 14.5499 16.4851 13.5603 15.4955C12.5707 14.506 12.0759 13.3155 12.0759 11.9241C12.0759 10.5253 12.5707 9.3311 13.5603 8.34152C14.5499 7.35193 15.744 6.85714 17.1429 6.85714C18.5417 6.85714 19.7359 7.35193 20.7254 8.34152C21.715 9.3311 22.2098 10.5253 22.2098 11.9241C22.2098 13.3155 21.715 14.506 20.7254 15.4955ZM18.8951 10.1607C18.4115 9.66964 17.8274 9.42411 17.1429 9.42411C16.4583 9.42411 15.8705 9.66964 15.3795 10.1607C14.8958 10.6443 14.654 11.2321 14.654 11.9241C14.654 12.6086 14.8958 13.1964 15.3795 13.6875C15.8705 14.1711 16.4583 14.4129 17.1429 14.4129C17.8274 14.4129 18.4115 14.1711 18.8951 13.6875C19.3862 13.1964 19.6317 12.6086 19.6317 11.9241C19.6317 11.2321 19.3862 10.6443 18.8951 10.1607ZM22.9799 17.5938C23.0766 17.7946 23.1324 17.9807 23.1473 18.1518C23.1622 18.3155 23.1436 18.4643 23.0915 18.5982C23.0469 18.7321 22.9501 18.8772 22.8013 19.0335C22.6525 19.1823 22.4926 19.3199 22.3214 19.4464C22.1577 19.5655 21.9308 19.718 21.6406 19.904C20.785 20.4472 19.6131 20.7969 18.125 20.9531L18.9397 21.7567L21.9196 24.7366C22.1429 24.9673 22.2545 25.2426 22.2545 25.5625C22.2545 25.8824 22.1429 26.154 21.9196 26.3772L21.7857 26.5223C21.5551 26.7455 21.2798 26.8571 20.9598 26.8571C20.6399 26.8571 20.3646 26.7455 20.1339 26.5223C19.6354 26.0164 18.6421 25.0193 17.154 23.5312L14.1741 26.5223C13.9435 26.7455 13.6682 26.8571 13.3482 26.8571C13.0283 26.8571 12.7567 26.7455 12.5335 26.5223L12.3996 26.3772C12.1689 26.154 12.0536 25.8824 12.0536 25.5625C12.0536 25.2426 12.1689 24.9673 12.3996 24.7366L15.3795 21.7567L16.183 20.9531C14.6726 20.7969 13.4933 20.4472 12.6451 19.904C12.3549 19.718 12.1243 19.5655 11.9531 19.4464C11.7894 19.3199 11.6332 19.1823 11.4844 19.0335C11.3356 18.8772 11.2351 18.7321 11.183 18.5982C11.1384 18.4643 11.1235 18.3155 11.1384 18.1518C11.1533 17.9807 11.2091 17.7946 11.3058 17.5938C11.3802 17.4449 11.4844 17.3147 11.6183 17.2031C11.7522 17.0915 11.9085 17.0097 12.0871 16.9576C12.2656 16.9055 12.474 16.9129 12.7121 16.9799C12.9501 17.0469 13.192 17.1771 13.4375 17.3705C13.4747 17.4003 13.5305 17.4412 13.6049 17.4933C13.6793 17.5454 13.8393 17.6384 14.0848 17.7723C14.3304 17.8988 14.5871 18.0104 14.8549 18.1071C15.1228 18.2039 15.465 18.2932 15.8817 18.375C16.2984 18.4568 16.7188 18.4978 17.1429 18.4978C17.8199 18.4978 18.4673 18.4048 19.0848 18.2188C19.7024 18.0253 20.1488 17.8356 20.4241 17.6496L20.8482 17.3705C21.0938 17.1771 21.3356 17.0469 21.5737 16.9799C21.8118 16.9129 22.0201 16.9055 22.1987 16.9576C22.3772 17.0097 22.5335 17.0915 22.6674 17.2031C22.8013 17.3147 22.9055 17.4449 22.9799 17.5938Z" fill="white"/>
</svg>
