<svg width="34" height="34" viewBox="0 0 34 34" fill="none" xmlns="http://www.w3.org/2000/svg">
<circle cx="17" cy="17" r="17" fill="url(#paint0_linear)"/>
<path d="M21.9463 19.2974C21.9463 18.9067 21.8682 18.5513 21.7119 18.231C21.5635 17.9028 21.376 17.6333 21.1494 17.4224C20.9229 17.2114 20.6377 17.02 20.2939 16.8481C19.9502 16.6763 19.626 16.5435 19.3213 16.4497C19.0244 16.356 18.6846 16.2661 18.3018 16.1802L17.083 15.8989C16.8486 15.8442 16.6768 15.8052 16.5674 15.7817C16.458 15.7505 16.3213 15.7036 16.1572 15.6411C15.9932 15.5786 15.876 15.5161 15.8057 15.4536C15.7354 15.3911 15.6689 15.3091 15.6064 15.2075C15.5518 15.106 15.5244 14.9888 15.5244 14.856C15.5244 14.2544 16.0869 13.9536 17.2119 13.9536C17.5479 13.9536 17.8486 14.0005 18.1143 14.0942C18.3799 14.188 18.5908 14.3013 18.7471 14.4341C18.9033 14.5591 19.0518 14.688 19.1924 14.8208C19.333 14.9536 19.4893 15.0669 19.6611 15.1606C19.833 15.2544 20.0205 15.3013 20.2236 15.3013C20.5908 15.3013 20.8838 15.1763 21.1025 14.9263C21.3291 14.6763 21.4424 14.3755 21.4424 14.0239C21.4424 13.5942 21.2236 13.2075 20.7861 12.8638C20.3486 12.5122 19.7939 12.2466 19.1221 12.0669C18.4502 11.8872 17.7393 11.7974 16.9893 11.7974C16.458 11.7974 15.9424 11.8599 15.4424 11.9849C14.9424 12.102 14.4736 12.2856 14.0361 12.5356C13.6064 12.7778 13.2588 13.1177 12.9932 13.5552C12.7354 13.9849 12.6064 14.4849 12.6064 15.0552C12.6064 15.5317 12.6807 15.9497 12.8291 16.3091C12.9775 16.6606 13.1963 16.9536 13.4854 17.188C13.7744 17.4224 14.0869 17.6138 14.4229 17.7622C14.7588 17.9028 15.1611 18.0278 15.6299 18.1372L17.3408 18.5591C18.0439 18.731 18.4814 18.8716 18.6533 18.981C18.9033 19.1372 19.0283 19.3716 19.0283 19.6841C19.0283 19.9888 18.8721 20.2427 18.5596 20.4458C18.2471 20.6411 17.8369 20.7388 17.3291 20.7388C16.9307 20.7388 16.5713 20.6763 16.251 20.5513C15.9385 20.4263 15.6846 20.2778 15.4893 20.106C15.3018 19.9263 15.126 19.7505 14.9619 19.5786C14.7979 19.3989 14.6182 19.2466 14.4229 19.1216C14.2275 18.9966 14.0166 18.9341 13.79 18.9341C13.3994 18.9341 13.1025 19.0513 12.8994 19.2856C12.7041 19.52 12.6064 19.813 12.6064 20.1646C12.6064 20.8833 13.083 21.5005 14.0361 22.0161C14.9893 22.5239 16.126 22.7778 17.4463 22.7778C18.0166 22.7778 18.5635 22.7075 19.0869 22.5669C19.6104 22.4185 20.0869 22.2075 20.5166 21.9341C20.9541 21.6606 21.3018 21.2974 21.5596 20.8442C21.8174 20.3833 21.9463 19.8677 21.9463 19.2974ZM26.2002 21.8403C26.2002 23.0825 25.7588 24.1411 24.876 25.0161C24.001 25.8989 22.9424 26.3403 21.7002 26.3403C20.6846 26.3403 19.7705 26.0278 18.958 25.4028C18.3564 25.5278 17.7705 25.5903 17.2002 25.5903C16.083 25.5903 15.0127 25.3716 13.9893 24.9341C12.9736 24.5044 12.0947 23.9224 11.3525 23.188C10.6182 22.4458 10.0322 21.5669 9.59473 20.5513C9.16504 19.5278 8.9502 18.4575 8.9502 17.3403C8.9502 16.77 9.0127 16.1841 9.1377 15.5825C8.5127 14.77 8.2002 13.856 8.2002 12.8403C8.2002 11.5981 8.6377 10.5396 9.5127 9.66455C10.3955 8.78174 11.458 8.34033 12.7002 8.34033C13.7158 8.34033 14.6299 8.65283 15.4424 9.27783C16.0439 9.15283 16.6299 9.09033 17.2002 9.09033C18.3174 9.09033 19.3838 9.30908 20.3994 9.74658C21.4229 10.1763 22.3018 10.7622 23.0361 11.5044C23.7783 12.2388 24.3643 13.1177 24.7939 14.1411C25.2314 15.1567 25.4502 16.2231 25.4502 17.3403C25.4502 17.9106 25.3877 18.4966 25.2627 19.0981C25.8877 19.9106 26.2002 20.8247 26.2002 21.8403Z" fill="white"/>
<defs>
<linearGradient id="paint0_linear" x1="17" y1="0" x2="17" y2="34" gradientUnits="userSpaceOnUse">
<stop stop-color="#21DAFF"/>
<stop offset="1" stop-color="#00B0EF"/>
</linearGradient>
</defs>
</svg>
