<svg width="34" height="34" viewBox="0 0 34 34" fill="none" xmlns="http://www.w3.org/2000/svg">
<circle cx="17" cy="17" r="17" fill="#039BE5"/>
<path fill-rule="evenodd" clip-rule="evenodd" d="M16.027 21.5392C15.304 22.252 14.5889 22.9523 13.8799 23.6588C13.632 23.9059 13.3532 24.0423 12.9976 24.0229C12.7555 24.0097 12.6195 23.9008 12.5453 23.6673C12.0028 21.9597 11.4513 20.2551 10.9112 18.5467C10.8586 18.3804 10.7793 18.3005 10.6143 18.2493C9.33492 17.853 8.05813 17.4481 6.78297 17.0382C6.59417 16.9775 6.40301 16.8994 6.2392 16.7893C5.95409 16.5977 5.9134 16.293 6.17376 16.0725C6.41432 15.8686 6.69953 15.6979 6.99171 15.5808C8.60826 14.9331 10.233 14.3064 11.8549 13.6722C15.7563 12.1466 19.6578 10.6211 23.5589 9.09477C24.3068 8.80216 24.8879 9.20797 24.8178 10.0251C24.7717 10.5637 24.6332 11.0953 24.5222 11.627C23.6577 15.7658 22.7898 19.9039 21.923 24.0423C21.9213 24.0502 21.9208 24.0584 21.919 24.0663C21.7071 25.0131 21.0282 25.2719 20.2541 24.6948C18.9103 23.6929 17.5699 22.6865 16.2279 21.6823C16.1644 21.6348 16.0988 21.5903 16.027 21.5392ZM13.0577 22.8426C13.0786 22.7454 13.093 22.7006 13.0973 22.6548C13.1826 21.7241 13.2717 20.7937 13.3472 19.8622C13.364 19.6555 13.4249 19.5028 13.5827 19.3592C15.6191 17.5072 17.6493 15.6481 19.681 13.7908C20.2589 13.2624 20.8393 12.7368 21.4116 12.2023C21.4717 12.1462 21.4847 12.0383 21.5196 11.9545C21.4312 11.9291 21.3321 11.8648 21.2566 11.8862C21.0822 11.9354 20.9064 12.0057 20.7534 12.1032C17.7326 14.0283 14.7157 15.9596 11.6948 17.8844C11.5411 17.9824 11.4972 18.063 11.5588 18.2506C12.0372 19.7064 12.5016 21.1669 12.9711 22.6257C12.9895 22.6829 13.0155 22.7375 13.0577 22.8426Z" fill="white"/>
</svg>
