<svg width="34" height="34" viewBox="0 0 34 34" fill="none" xmlns="http://www.w3.org/2000/svg">
<circle cx="17" cy="17" r="17" fill="#2787F5"/>
<path d="M26.8751 12.501C27.0462 12.9772 26.4882 14.071 25.201 15.7823C25.0224 16.0204 24.7806 16.3366 24.4755 16.731C24.1779 17.1104 23.9733 17.3783 23.8617 17.5345C23.7501 17.6908 23.6347 17.8768 23.5157 18.0926C23.4041 18.3009 23.3594 18.4571 23.3818 18.5613C23.4115 18.658 23.4599 18.7845 23.5269 18.9408C23.6013 19.097 23.724 19.257 23.8952 19.4207C24.0663 19.5844 24.2783 19.7816 24.5313 20.0122C24.5611 20.0271 24.5797 20.042 24.5871 20.0568C25.6362 21.0316 26.3468 21.8537 26.7188 22.5234C26.7411 22.5606 26.7635 22.6089 26.7858 22.6685C26.8155 22.7205 26.8416 22.8173 26.8639 22.9586C26.8937 23.1 26.8937 23.2265 26.8639 23.3381C26.8341 23.4497 26.7411 23.5539 26.5849 23.6506C26.4286 23.7399 26.2091 23.7845 25.9264 23.7845L23.0693 23.8292C22.8907 23.8664 22.6824 23.8478 22.4443 23.7734C22.2062 23.699 22.0127 23.6171 21.8639 23.5278L21.6407 23.3939C21.4175 23.2377 21.1571 22.9996 20.8594 22.6796C20.5618 22.3597 20.3051 22.0732 20.0894 21.8202C19.881 21.5598 19.6541 21.3441 19.4086 21.1729C19.1705 20.9943 18.9621 20.9348 18.7836 20.9943C18.7612 21.0018 18.7315 21.0167 18.6943 21.039C18.6571 21.0539 18.5938 21.106 18.5045 21.1952C18.4152 21.2845 18.3334 21.3961 18.259 21.5301C18.192 21.6566 18.1288 21.85 18.0693 22.1104C18.0172 22.3634 17.9949 22.6499 18.0023 22.9698C18.0023 23.0814 17.9874 23.1856 17.9577 23.2823C17.9353 23.3716 17.9093 23.4385 17.8795 23.4832L17.8349 23.539C17.701 23.6804 17.5038 23.7622 17.2434 23.7845H15.9599C15.4316 23.8143 14.8885 23.7548 14.3304 23.606C13.7724 23.4497 13.2813 23.2525 12.8572 23.0144C12.4405 22.7689 12.0574 22.5234 11.7077 22.2778C11.3654 22.0249 11.105 21.8091 10.9264 21.6305L10.6474 21.3627C10.573 21.2882 10.4688 21.1766 10.3349 21.0278C10.2084 20.879 9.94427 20.5405 9.54248 20.0122C9.14069 19.4839 8.74635 18.9222 8.35944 18.3269C7.97254 17.7317 7.51495 16.9467 6.98668 15.972C6.46584 14.9973 5.98221 13.9854 5.53578 12.9363C5.49114 12.8173 5.46882 12.7168 5.46882 12.635C5.46882 12.5531 5.47998 12.4936 5.5023 12.4564L5.54694 12.3894C5.65855 12.2481 5.87061 12.1774 6.18311 12.1774L9.24114 12.1551C9.33043 12.1699 9.41599 12.196 9.49784 12.2332C9.57968 12.263 9.63921 12.2927 9.67641 12.3225L9.73221 12.356C9.85126 12.4378 9.94055 12.5568 10.0001 12.7131C10.1489 13.0851 10.32 13.472 10.5135 13.8738C10.7069 14.2682 10.8594 14.5695 10.9711 14.7778L11.1496 15.1015C11.3654 15.5479 11.5737 15.9348 11.7746 16.2622C11.9755 16.5896 12.1541 16.8463 12.3103 17.0323C12.474 17.2109 12.6303 17.3522 12.7791 17.4564C12.9279 17.5606 13.0544 17.6127 13.1586 17.6127C13.2627 17.6127 13.3632 17.5941 13.4599 17.5568C13.4748 17.5494 13.4934 17.5308 13.5157 17.501C13.538 17.4713 13.5827 17.3894 13.6496 17.2555C13.7166 17.1216 13.765 16.9467 13.7947 16.731C13.8319 16.5152 13.8691 16.2138 13.9063 15.8269C13.9435 15.44 13.9435 14.975 13.9063 14.4318C13.8914 14.1342 13.858 13.8627 13.8059 13.6171C13.7538 13.3716 13.7017 13.2005 13.6496 13.1037L13.5827 12.9698C13.3966 12.7168 13.0804 12.5568 12.634 12.4899C12.5373 12.475 12.5559 12.3857 12.6898 12.222C12.8088 12.0807 12.9502 11.9691 13.1139 11.8872C13.5083 11.6938 14.3974 11.6045 15.7813 11.6193C16.3914 11.6268 16.8937 11.6752 17.288 11.7644C17.4368 11.8016 17.5596 11.8537 17.6563 11.9207C17.7605 11.9802 17.8386 12.0695 17.8907 12.1885C17.9428 12.3002 17.98 12.4192 18.0023 12.5457C18.0321 12.6647 18.0469 12.8321 18.0469 13.0479C18.0469 13.2637 18.0432 13.4683 18.0358 13.6618C18.0283 13.8552 18.0172 14.1193 18.0023 14.4542C17.9949 14.7816 17.9911 15.0866 17.9911 15.3693C17.9911 15.4512 17.9874 15.6074 17.98 15.8381C17.9725 16.0688 17.9688 16.2473 17.9688 16.3738C17.9763 16.5003 17.9911 16.6528 18.0135 16.8314C18.0358 17.0025 18.0767 17.1476 18.1362 17.2667C18.2032 17.3783 18.2888 17.4676 18.3929 17.5345C18.4525 17.5494 18.5157 17.5643 18.5827 17.5792C18.6496 17.5941 18.7463 17.5531 18.8728 17.4564C18.9993 17.3597 19.1407 17.2332 19.2969 17.0769C19.4532 16.9132 19.6466 16.664 19.8773 16.3292C20.108 15.9869 20.3609 15.5851 20.6362 15.1238C21.0827 14.35 21.4807 13.513 21.8304 12.6127C21.8602 12.5382 21.8974 12.475 21.942 12.4229C21.9867 12.3634 22.0276 12.3225 22.0648 12.3002L22.1094 12.2667C22.1243 12.2592 22.1429 12.2518 22.1652 12.2443C22.1876 12.2295 22.2359 12.2183 22.3103 12.2109C22.3847 12.196 22.4591 12.1923 22.5336 12.1997L25.7478 12.1774C26.038 12.1402 26.2761 12.1513 26.4621 12.2109C26.6481 12.263 26.7635 12.3225 26.8081 12.3894L26.8751 12.501Z" fill="white"/>
</svg>
