<svg width="34" height="34" viewBox="0 0 34 34" fill="none" xmlns="http://www.w3.org/2000/svg">
<circle cx="17" cy="17" r="17" fill="url(#paint0_linear)"/>
<path d="M18.6544 18.5423C18.9736 18.1413 19.1864 17.9408 19.2928 17.9408C19.3992 17.9408 19.7962 18.1208 20.4837 18.481C21.1794 18.8411 21.5477 19.058 21.5886 19.1316C21.605 19.1725 21.6131 19.2339 21.6131 19.3158C21.6131 19.5859 21.5436 19.8969 21.4044 20.2488C21.2735 20.568 20.9829 20.8381 20.5328 21.0591C20.0826 21.2719 19.6652 21.3783 19.2806 21.3783C18.814 21.3783 18.0365 21.1246 16.948 20.6171C16.1459 20.2488 15.4502 19.7659 14.8609 19.1685C14.2716 18.571 13.666 17.8139 13.0439 16.8973C12.4547 16.0215 12.1641 15.2276 12.1723 14.5156V14.4173C12.1968 13.6725 12.4997 13.026 13.0808 12.4776C13.2772 12.2975 13.49 12.2075 13.7192 12.2075C13.7683 12.2075 13.8419 12.2157 13.9402 12.2321C14.0384 12.2403 14.1161 12.2443 14.1734 12.2443C14.3289 12.2443 14.4353 12.273 14.4926 12.3303C14.5581 12.3794 14.6236 12.4899 14.689 12.6618C14.7545 12.8255 14.8896 13.1856 15.0942 13.7421C15.2988 14.2987 15.4011 14.6056 15.4011 14.6629C15.4011 14.8348 15.2579 15.0721 14.9714 15.3749C14.6931 15.6696 14.554 15.8578 14.554 15.9397C14.554 15.997 14.5745 16.0583 14.6154 16.1238C14.8936 16.7213 15.3111 17.2819 15.8676 17.8057C16.3259 18.2395 16.9439 18.6528 17.7214 19.0457C17.8196 19.103 17.9096 19.1316 17.9915 19.1316C18.1143 19.1316 18.3352 18.9352 18.6544 18.5423ZM16.8006 24.4475C17.8401 24.4475 18.8345 24.2429 19.7839 23.8336C20.7415 23.4244 21.564 22.876 22.2515 22.1885C22.939 21.501 23.4874 20.6826 23.8966 19.7332C24.3059 18.7756 24.5105 17.7771 24.5105 16.7377C24.5105 15.6982 24.3059 14.7038 23.8966 13.7544C23.4874 12.7968 22.939 11.9743 22.2515 11.2868C21.564 10.5993 20.7415 10.0509 19.7839 9.64167C18.8345 9.23244 17.8401 9.02783 16.8006 9.02783C15.7612 9.02783 14.7627 9.23244 13.8051 9.64167C12.8557 10.0509 12.0372 10.5993 11.3497 11.2868C10.6622 11.9743 10.1139 12.7968 9.70466 13.7544C9.29543 14.7038 9.09082 15.6982 9.09082 16.7377C9.09082 18.3991 9.58189 19.9051 10.564 21.2555L9.59417 24.116L12.5652 23.1707C13.8583 24.0219 15.2701 24.4475 16.8006 24.4475ZM13.2035 8.21756C14.3494 7.72649 15.5484 7.48096 16.8006 7.48096C18.0529 7.48096 19.2478 7.72649 20.3855 8.21756C21.5313 8.70864 22.5175 9.36749 23.3442 10.1941C24.1708 11.0208 24.8297 12.007 25.3207 13.1528C25.8118 14.2905 26.0573 15.4854 26.0573 16.7377C26.0573 17.9899 25.8118 19.1889 25.3207 20.3348C24.8297 21.4724 24.1708 22.4545 23.3442 23.2812C22.5175 24.1078 21.5313 24.7667 20.3855 25.2577C19.2478 25.7488 18.0529 25.9943 16.8006 25.9943C15.2047 25.9943 13.711 25.6097 12.3196 24.8403L7.2002 26.4854L8.86984 21.5133C7.98591 20.0565 7.54395 18.4646 7.54395 16.7377C7.54395 15.4854 7.78948 14.2905 8.28055 13.1528C8.77162 12.007 9.43048 11.0208 10.2571 10.1941C11.0838 9.36749 12.0659 8.70864 13.2035 8.21756Z" fill="white"/>
<defs>
<linearGradient id="paint0_linear" x1="17" y1="0" x2="17" y2="34" gradientUnits="userSpaceOnUse">
<stop stop-color="#3FFF62"/>
<stop offset="1" stop-color="#1FCC3F"/>
</linearGradient>
</defs>
</svg>
